<mxfile host="app.diagrams.net" modified="2023-06-13T07:21:26.943Z" agent="Mozilla/5.0 (X11; Ubuntu; Linux x86_64; rv:109.0) Gecko/20100101 Firefox/114.0" etag="WHudtmpcskhCl8gURVbw" version="21.3.8" type="device">
  <diagram id="VgoDLUL9bQ4f__Fgdaja" name="Page-1">
    <mxGraphModel dx="1769" dy="1020" grid="1" gridSize="10" guides="1" tooltips="1" connect="1" arrows="1" fold="1" page="1" pageScale="1" pageWidth="850" pageHeight="1100" math="0" shadow="0">
      <root>
        <mxCell id="0" />
        <mxCell id="1" parent="0" />
        <mxCell id="aXUsc3ZZu3IAjLPGk9mq-31" value="" style="shape=tableRow;horizontal=0;startSize=0;swimlaneHead=0;swimlaneBody=0;fillColor=none;collapsible=0;dropTarget=0;points=[[0,0.5],[1,0.5]];portConstraint=eastwest;top=0;left=0;right=0;bottom=0;" parent="1" vertex="1">
          <mxGeometry x="309" y="358" width="180" height="30" as="geometry" />
        </mxCell>
        <mxCell id="aXUsc3ZZu3IAjLPGk9mq-32" value="" style="shape=partialRectangle;connectable=0;fillColor=none;top=0;left=0;bottom=0;right=0;editable=1;overflow=hidden;" parent="aXUsc3ZZu3IAjLPGk9mq-31" vertex="1">
          <mxGeometry width="60" height="30" as="geometry">
            <mxRectangle width="60" height="30" as="alternateBounds" />
          </mxGeometry>
        </mxCell>
        <mxCell id="Zjt4GOUDyXOwtxYlhbUR-1" value="project" style="swimlane;childLayout=stackLayout;horizontal=1;startSize=30;horizontalStack=0;rounded=1;fontSize=14;fontStyle=0;strokeWidth=2;resizeParent=0;resizeLast=1;shadow=0;dashed=0;align=center;" parent="1" vertex="1">
          <mxGeometry x="69" y="578" width="180" height="130" as="geometry" />
        </mxCell>
        <mxCell id="Zjt4GOUDyXOwtxYlhbUR-2" value="+id&#xa;+creator_id&#xa;+name&#xa;+producer&#xa;+start&#xa;+stop&#xa;" style="align=left;strokeColor=none;fillColor=none;spacingLeft=4;fontSize=12;verticalAlign=top;resizable=0;rotatable=0;part=1;" parent="Zjt4GOUDyXOwtxYlhbUR-1" vertex="1">
          <mxGeometry y="30" width="180" height="100" as="geometry" />
        </mxCell>
        <mxCell id="Zjt4GOUDyXOwtxYlhbUR-3" value="users" style="swimlane;childLayout=stackLayout;horizontal=1;startSize=30;horizontalStack=0;rounded=1;fontSize=14;fontStyle=0;strokeWidth=2;resizeParent=0;resizeLast=1;shadow=0;dashed=0;align=center;" parent="1" vertex="1">
          <mxGeometry x="549" y="500" width="170" height="149.5" as="geometry" />
        </mxCell>
        <mxCell id="Zjt4GOUDyXOwtxYlhbUR-4" value="+id&#xa;+group_id&#xa;+maker&#xa;+username&#xa;+email&#xa;+phone&#xa;+enabled" style="align=left;strokeColor=none;fillColor=none;spacingLeft=4;fontSize=12;verticalAlign=top;resizable=0;rotatable=0;part=1;" parent="Zjt4GOUDyXOwtxYlhbUR-3" vertex="1">
          <mxGeometry y="30" width="170" height="119.5" as="geometry" />
        </mxCell>
        <mxCell id="Zjt4GOUDyXOwtxYlhbUR-10" value="todos" style="swimlane;childLayout=stackLayout;horizontal=1;startSize=30;horizontalStack=0;rounded=1;fontSize=14;fontStyle=0;strokeWidth=2;resizeParent=0;resizeLast=1;shadow=0;dashed=0;align=center;" parent="1" vertex="1">
          <mxGeometry x="309" y="570" width="170" height="160.5" as="geometry" />
        </mxCell>
        <mxCell id="Zjt4GOUDyXOwtxYlhbUR-11" value="+id&#xa;+project_id&#xa;+content&#xa;+start&#xa;+stop&#xa;+date_time&#xa;+producer_id&#xa;+executor_id" style="align=left;strokeColor=none;fillColor=none;spacingLeft=4;fontSize=12;verticalAlign=top;resizable=0;rotatable=0;part=1;" parent="Zjt4GOUDyXOwtxYlhbUR-10" vertex="1">
          <mxGeometry y="30" width="170" height="130.5" as="geometry" />
        </mxCell>
        <mxCell id="Zjt4GOUDyXOwtxYlhbUR-12" value="equipment" style="swimlane;childLayout=stackLayout;horizontal=1;startSize=30;horizontalStack=0;rounded=1;fontSize=14;fontStyle=0;strokeWidth=2;resizeParent=0;resizeLast=1;shadow=0;dashed=0;align=center;" parent="1" vertex="1">
          <mxGeometry x="549" y="820" width="170" height="100" as="geometry" />
        </mxCell>
        <mxCell id="Zjt4GOUDyXOwtxYlhbUR-13" value="+id&#xa;+name" style="align=left;strokeColor=none;fillColor=none;spacingLeft=4;fontSize=12;verticalAlign=top;resizable=0;rotatable=0;part=1;" parent="Zjt4GOUDyXOwtxYlhbUR-12" vertex="1">
          <mxGeometry y="30" width="170" height="70" as="geometry" />
        </mxCell>
        <mxCell id="Zjt4GOUDyXOwtxYlhbUR-16" value="todo_equipment" style="swimlane;childLayout=stackLayout;horizontal=1;startSize=30;horizontalStack=0;rounded=1;fontSize=14;fontStyle=0;strokeWidth=2;resizeParent=0;resizeLast=1;shadow=0;dashed=0;align=center;" parent="1" vertex="1">
          <mxGeometry x="314" y="820" width="160" height="100" as="geometry" />
        </mxCell>
        <mxCell id="Zjt4GOUDyXOwtxYlhbUR-17" value="+id&#xa;+todo_id&#xa;+equipment_id&#xa;" style="align=left;strokeColor=none;fillColor=none;spacingLeft=4;fontSize=12;verticalAlign=top;resizable=0;rotatable=0;part=1;" parent="Zjt4GOUDyXOwtxYlhbUR-16" vertex="1">
          <mxGeometry y="30" width="160" height="70" as="geometry" />
        </mxCell>
        <mxCell id="Zjt4GOUDyXOwtxYlhbUR-18" value="roles" style="swimlane;childLayout=stackLayout;horizontal=1;startSize=30;horizontalStack=0;rounded=1;fontSize=14;fontStyle=0;strokeWidth=2;resizeParent=0;resizeLast=1;shadow=0;dashed=0;align=center;" parent="1" vertex="1">
          <mxGeometry x="309" y="203.75" width="170" height="105.25" as="geometry" />
        </mxCell>
        <mxCell id="Zjt4GOUDyXOwtxYlhbUR-19" value="+id&#xa;+project_id&#xa;+user_id&#xa;+producer" style="align=left;strokeColor=none;fillColor=none;spacingLeft=4;fontSize=12;verticalAlign=top;resizable=0;rotatable=0;part=1;" parent="Zjt4GOUDyXOwtxYlhbUR-18" vertex="1">
          <mxGeometry y="30" width="170" height="75.25" as="geometry" />
        </mxCell>
        <mxCell id="Zjt4GOUDyXOwtxYlhbUR-37" value="" style="edgeStyle=orthogonalEdgeStyle;fontSize=12;html=1;endArrow=ERoneToMany;rounded=0;exitX=0.75;exitY=0;exitDx=0;exitDy=0;entryX=0;entryY=0.25;entryDx=0;entryDy=0;" parent="1" source="Zjt4GOUDyXOwtxYlhbUR-1" target="Zjt4GOUDyXOwtxYlhbUR-19" edge="1">
          <mxGeometry width="100" height="100" relative="1" as="geometry">
            <mxPoint x="419" y="329" as="sourcePoint" />
            <mxPoint x="519" y="229" as="targetPoint" />
          </mxGeometry>
        </mxCell>
        <mxCell id="Zjt4GOUDyXOwtxYlhbUR-39" value="" style="edgeStyle=orthogonalEdgeStyle;fontSize=12;html=1;endArrow=ERoneToMany;rounded=0;exitX=0.5;exitY=1;exitDx=0;exitDy=0;entryX=0.5;entryY=0;entryDx=0;entryDy=0;" parent="1" source="Zjt4GOUDyXOwtxYlhbUR-11" target="Zjt4GOUDyXOwtxYlhbUR-16" edge="1">
          <mxGeometry width="100" height="100" relative="1" as="geometry">
            <mxPoint x="470" y="762" as="sourcePoint" />
            <mxPoint x="319" y="820" as="targetPoint" />
          </mxGeometry>
        </mxCell>
        <mxCell id="Zjt4GOUDyXOwtxYlhbUR-40" value="" style="edgeStyle=entityRelationEdgeStyle;fontSize=12;html=1;endArrow=ERoneToMany;rounded=0;entryX=0;entryY=0.25;entryDx=0;entryDy=0;exitX=1;exitY=0.25;exitDx=0;exitDy=0;" parent="1" source="Zjt4GOUDyXOwtxYlhbUR-2" target="Zjt4GOUDyXOwtxYlhbUR-11" edge="1">
          <mxGeometry width="100" height="100" relative="1" as="geometry">
            <mxPoint x="239" y="409" as="sourcePoint" />
            <mxPoint x="239" y="539" as="targetPoint" />
          </mxGeometry>
        </mxCell>
        <mxCell id="Zjt4GOUDyXOwtxYlhbUR-48" value="results" style="swimlane;childLayout=stackLayout;horizontal=1;startSize=30;horizontalStack=0;rounded=1;fontSize=14;fontStyle=0;strokeWidth=2;resizeParent=0;resizeLast=1;shadow=0;dashed=0;align=center;" parent="1" vertex="1">
          <mxGeometry x="309" y="350" width="170" height="131" as="geometry" />
        </mxCell>
        <mxCell id="Zjt4GOUDyXOwtxYlhbUR-49" value="+id&#xa;+todo_id&#xa;+content&#xa;+url&#xa;+date_time&#xa;+approved" style="align=left;strokeColor=none;fillColor=none;spacingLeft=4;fontSize=12;verticalAlign=top;resizable=0;rotatable=0;part=1;" parent="Zjt4GOUDyXOwtxYlhbUR-48" vertex="1">
          <mxGeometry y="30" width="170" height="101" as="geometry" />
        </mxCell>
        <mxCell id="ZNHT6HNop0RXqT3GHJ5O-1" value="groups" style="swimlane;childLayout=stackLayout;horizontal=1;startSize=30;horizontalStack=0;rounded=1;fontSize=14;fontStyle=0;strokeWidth=2;resizeParent=0;resizeLast=1;shadow=0;dashed=0;align=center;" parent="1" vertex="1">
          <mxGeometry x="548" y="203.75" width="170" height="96.25" as="geometry" />
        </mxCell>
        <mxCell id="ZNHT6HNop0RXqT3GHJ5O-2" value="+id&#xa;+name" style="align=left;strokeColor=none;fillColor=none;spacingLeft=4;fontSize=12;verticalAlign=top;resizable=0;rotatable=0;part=1;" parent="ZNHT6HNop0RXqT3GHJ5O-1" vertex="1">
          <mxGeometry y="30" width="170" height="66.25" as="geometry" />
        </mxCell>
        <mxCell id="ZNHT6HNop0RXqT3GHJ5O-5" value="tag" style="swimlane;childLayout=stackLayout;horizontal=1;startSize=30;horizontalStack=0;rounded=1;fontSize=14;fontStyle=0;strokeWidth=2;resizeParent=0;resizeLast=1;shadow=0;dashed=0;align=center;" parent="1" vertex="1">
          <mxGeometry x="559" y="51" width="170" height="89" as="geometry" />
        </mxCell>
        <mxCell id="ZNHT6HNop0RXqT3GHJ5O-6" value="+id&#xa;+name" style="align=left;strokeColor=none;fillColor=none;spacingLeft=4;fontSize=12;verticalAlign=top;resizable=0;rotatable=0;part=1;" parent="ZNHT6HNop0RXqT3GHJ5O-5" vertex="1">
          <mxGeometry y="30" width="170" height="59" as="geometry" />
        </mxCell>
        <mxCell id="ZNHT6HNop0RXqT3GHJ5O-8" value="project_tag" style="swimlane;childLayout=stackLayout;horizontal=1;startSize=30;horizontalStack=0;rounded=1;fontSize=14;fontStyle=0;strokeWidth=2;resizeParent=0;resizeLast=1;shadow=0;dashed=0;align=center;" parent="1" vertex="1">
          <mxGeometry x="309" y="50" width="170" height="90" as="geometry" />
        </mxCell>
        <mxCell id="ZNHT6HNop0RXqT3GHJ5O-9" value="+project_id&#xa;+tag_id" style="align=left;strokeColor=none;fillColor=none;spacingLeft=4;fontSize=12;verticalAlign=top;resizable=0;rotatable=0;part=1;" parent="ZNHT6HNop0RXqT3GHJ5O-8" vertex="1">
          <mxGeometry y="30" width="170" height="60" as="geometry" />
        </mxCell>
        <mxCell id="ZNHT6HNop0RXqT3GHJ5O-10" value="" style="edgeStyle=orthogonalEdgeStyle;fontSize=12;html=1;endArrow=ERoneToMany;rounded=0;exitX=0.5;exitY=0;exitDx=0;exitDy=0;entryX=-0.006;entryY=0.339;entryDx=0;entryDy=0;entryPerimeter=0;" parent="1" source="Zjt4GOUDyXOwtxYlhbUR-1" edge="1" target="ZNHT6HNop0RXqT3GHJ5O-9">
          <mxGeometry width="100" height="100" relative="1" as="geometry">
            <mxPoint x="269" y="410.5" as="sourcePoint" />
            <mxPoint x="319" y="120" as="targetPoint" />
            <Array as="points">
              <mxPoint x="159" y="100" />
            </Array>
          </mxGeometry>
        </mxCell>
        <mxCell id="RcWCo8068WPme0wdyjox-3" value="" style="edgeStyle=orthogonalEdgeStyle;fontSize=12;html=1;endArrow=ERmandOne;startArrow=ERmandOne;rounded=0;entryX=0;entryY=0.75;entryDx=0;entryDy=0;exitX=0.988;exitY=0.153;exitDx=0;exitDy=0;exitPerimeter=0;" edge="1" parent="1" source="Zjt4GOUDyXOwtxYlhbUR-11" target="Zjt4GOUDyXOwtxYlhbUR-4">
          <mxGeometry width="100" height="100" relative="1" as="geometry">
            <mxPoint x="494" y="433" as="sourcePoint" />
            <mxPoint x="554" y="530" as="targetPoint" />
          </mxGeometry>
        </mxCell>
        <mxCell id="RcWCo8068WPme0wdyjox-5" value="comments" style="swimlane;childLayout=stackLayout;horizontal=1;startSize=30;horizontalStack=0;rounded=1;fontSize=14;fontStyle=0;strokeWidth=2;resizeParent=0;resizeLast=1;shadow=0;dashed=0;align=center;" vertex="1" parent="1">
          <mxGeometry x="549" y="670" width="170" height="130" as="geometry" />
        </mxCell>
        <mxCell id="RcWCo8068WPme0wdyjox-6" value="+id&#xa;+todo_id&#xa;+user_id&#xa;+comment&#xa;+url&#xa;+date_time" style="align=left;strokeColor=none;fillColor=none;spacingLeft=4;fontSize=12;verticalAlign=top;resizable=0;rotatable=0;part=1;" vertex="1" parent="RcWCo8068WPme0wdyjox-5">
          <mxGeometry y="30" width="170" height="100" as="geometry" />
        </mxCell>
        <mxCell id="RcWCo8068WPme0wdyjox-7" value="" style="edgeStyle=orthogonalEdgeStyle;fontSize=12;html=1;endArrow=ERoneToMany;rounded=0;exitX=1;exitY=0.5;exitDx=0;exitDy=0;entryX=0;entryY=0.25;entryDx=0;entryDy=0;" edge="1" parent="1" source="Zjt4GOUDyXOwtxYlhbUR-11" target="RcWCo8068WPme0wdyjox-6">
          <mxGeometry width="100" height="100" relative="1" as="geometry">
            <mxPoint x="492" y="685" as="sourcePoint" />
            <mxPoint x="494" y="897" as="targetPoint" />
            <Array as="points">
              <mxPoint x="520" y="665" />
              <mxPoint x="520" y="725" />
            </Array>
          </mxGeometry>
        </mxCell>
        <mxCell id="RcWCo8068WPme0wdyjox-8" value="" style="edgeStyle=orthogonalEdgeStyle;fontSize=12;html=1;endArrow=ERmandOne;startArrow=ERmandOne;rounded=0;entryX=1;entryY=0.75;entryDx=0;entryDy=0;exitX=1;exitY=0.25;exitDx=0;exitDy=0;" edge="1" parent="1" source="RcWCo8068WPme0wdyjox-6" target="Zjt4GOUDyXOwtxYlhbUR-4">
          <mxGeometry width="100" height="100" relative="1" as="geometry">
            <mxPoint x="724" y="530" as="sourcePoint" />
            <mxPoint x="724" y="372" as="targetPoint" />
            <Array as="points">
              <mxPoint x="770" y="725" />
              <mxPoint x="770" y="620" />
            </Array>
          </mxGeometry>
        </mxCell>
        <mxCell id="RcWCo8068WPme0wdyjox-9" value="user_group" style="swimlane;childLayout=stackLayout;horizontal=1;startSize=30;horizontalStack=0;rounded=1;fontSize=14;fontStyle=0;strokeWidth=2;resizeParent=0;resizeLast=1;shadow=0;dashed=0;align=center;" vertex="1" parent="1">
          <mxGeometry x="549" y="352" width="170" height="108" as="geometry" />
        </mxCell>
        <mxCell id="RcWCo8068WPme0wdyjox-10" value="+user_id&#xa;+group_id" style="align=left;strokeColor=none;fillColor=none;spacingLeft=4;fontSize=12;verticalAlign=top;resizable=0;rotatable=0;part=1;" vertex="1" parent="RcWCo8068WPme0wdyjox-9">
          <mxGeometry y="30" width="170" height="78" as="geometry" />
        </mxCell>
        <mxCell id="RcWCo8068WPme0wdyjox-22" value="" style="edgeStyle=orthogonalEdgeStyle;fontSize=12;html=1;endArrow=ERmandOne;startArrow=ERmandOne;rounded=0;entryX=1;entryY=0.5;entryDx=0;entryDy=0;exitX=0.428;exitY=1.01;exitDx=0;exitDy=0;exitPerimeter=0;" edge="1" parent="1" source="Zjt4GOUDyXOwtxYlhbUR-2" target="Zjt4GOUDyXOwtxYlhbUR-4">
          <mxGeometry width="100" height="100" relative="1" as="geometry">
            <mxPoint x="729" y="735" as="sourcePoint" />
            <mxPoint x="729" y="630" as="targetPoint" />
            <Array as="points">
              <mxPoint x="146" y="970" />
              <mxPoint x="800" y="970" />
              <mxPoint x="800" y="590" />
            </Array>
          </mxGeometry>
        </mxCell>
        <mxCell id="RcWCo8068WPme0wdyjox-23" value="" style="edgeStyle=orthogonalEdgeStyle;fontSize=12;html=1;endArrow=ERoneToMany;rounded=0;exitX=0;exitY=0.25;exitDx=0;exitDy=0;entryX=1;entryY=0.25;entryDx=0;entryDy=0;" edge="1" parent="1" source="ZNHT6HNop0RXqT3GHJ5O-6" target="ZNHT6HNop0RXqT3GHJ5O-9">
          <mxGeometry width="100" height="100" relative="1" as="geometry">
            <mxPoint x="99" y="588" as="sourcePoint" />
            <mxPoint x="318" y="110" as="targetPoint" />
            <Array as="points">
              <mxPoint x="559" y="95" />
              <mxPoint x="559" y="95" />
            </Array>
          </mxGeometry>
        </mxCell>
        <mxCell id="RcWCo8068WPme0wdyjox-24" value="" style="edgeStyle=orthogonalEdgeStyle;fontSize=12;html=1;endArrow=ERoneToMany;rounded=0;exitX=0;exitY=0.25;exitDx=0;exitDy=0;entryX=1;entryY=0.25;entryDx=0;entryDy=0;" edge="1" parent="1" source="Zjt4GOUDyXOwtxYlhbUR-4" target="Zjt4GOUDyXOwtxYlhbUR-19">
          <mxGeometry width="100" height="100" relative="1" as="geometry">
            <mxPoint x="569" y="106" as="sourcePoint" />
            <mxPoint x="489" y="105" as="targetPoint" />
            <Array as="points">
              <mxPoint x="519" y="560" />
              <mxPoint x="519" y="253" />
            </Array>
          </mxGeometry>
        </mxCell>
        <mxCell id="RcWCo8068WPme0wdyjox-25" value="" style="edgeStyle=orthogonalEdgeStyle;fontSize=12;html=1;endArrow=ERoneToMany;rounded=0;exitX=0;exitY=0.25;exitDx=0;exitDy=0;entryX=1;entryY=0.25;entryDx=0;entryDy=0;" edge="1" parent="1" source="Zjt4GOUDyXOwtxYlhbUR-13" target="Zjt4GOUDyXOwtxYlhbUR-17">
          <mxGeometry width="100" height="100" relative="1" as="geometry">
            <mxPoint x="404" y="741" as="sourcePoint" />
            <mxPoint x="404" y="830" as="targetPoint" />
          </mxGeometry>
        </mxCell>
        <mxCell id="RcWCo8068WPme0wdyjox-27" value="" style="edgeStyle=orthogonalEdgeStyle;fontSize=12;html=1;endArrow=ERoneToMany;rounded=0;entryX=1;entryY=0.25;entryDx=0;entryDy=0;exitX=1;exitY=0.5;exitDx=0;exitDy=0;" edge="1" parent="1" source="ZNHT6HNop0RXqT3GHJ5O-1" target="RcWCo8068WPme0wdyjox-10">
          <mxGeometry width="100" height="100" relative="1" as="geometry">
            <mxPoint x="769" y="340" as="sourcePoint" />
            <mxPoint x="739" y="330" as="targetPoint" />
            <Array as="points">
              <mxPoint x="769" y="244" />
              <mxPoint x="769" y="402" />
            </Array>
          </mxGeometry>
        </mxCell>
        <mxCell id="RcWCo8068WPme0wdyjox-28" value="" style="edgeStyle=orthogonalEdgeStyle;fontSize=12;html=1;endArrow=ERoneToMany;rounded=0;entryX=1;entryY=0.5;entryDx=0;entryDy=0;exitX=1;exitY=0.192;exitDx=0;exitDy=0;exitPerimeter=0;" edge="1" parent="1" source="Zjt4GOUDyXOwtxYlhbUR-4" target="RcWCo8068WPme0wdyjox-10">
          <mxGeometry width="100" height="100" relative="1" as="geometry">
            <mxPoint x="729" y="550" as="sourcePoint" />
            <mxPoint x="499" y="273" as="targetPoint" />
            <Array as="points">
              <mxPoint x="769" y="553" />
              <mxPoint x="769" y="421" />
            </Array>
          </mxGeometry>
        </mxCell>
        <mxCell id="RcWCo8068WPme0wdyjox-29" value="" style="edgeStyle=orthogonalEdgeStyle;fontSize=12;html=1;endArrow=ERoneToMany;rounded=0;entryX=0.5;entryY=1;entryDx=0;entryDy=0;exitX=0.5;exitY=0;exitDx=0;exitDy=0;" edge="1" parent="1" source="Zjt4GOUDyXOwtxYlhbUR-10" target="Zjt4GOUDyXOwtxYlhbUR-49">
          <mxGeometry width="100" height="100" relative="1" as="geometry">
            <mxPoint x="729" y="563" as="sourcePoint" />
            <mxPoint x="729" y="431" as="targetPoint" />
            <Array as="points">
              <mxPoint x="394" y="550" />
              <mxPoint x="394" y="550" />
            </Array>
          </mxGeometry>
        </mxCell>
      </root>
    </mxGraphModel>
  </diagram>
</mxfile>
